<svg width="809" height="349" viewBox="0 0 809 349" fill="none" xmlns="http://www.w3.org/2000/svg">
<path d="M369.69 54.7184C350.295 69.6975 331.191 84.4669 312.018 99.1463C309.394 101.155 308.328 103.429 308.346 106.776C308.47 129.602 308.412 152.429 308.406 175.255C308.403 182.291 308.34 182.424 301.575 182.347C285.75 182.168 287.774 184.445 287.711 168.617C287.617 144.958 287.751 121.298 287.629 97.6384C287.603 92.5491 289.338 88.9589 293.461 85.7691C325.864 60.6989 358.114 35.4326 390.418 10.2341C393.306 7.98097 396.212 5.74919 399.15 3.5612C404.688 -0.563097 408.972 -0.741594 414.614 3.50807C432.702 17.1329 450.698 30.88 468.703 44.6145C485.385 57.3395 501.907 70.2794 518.764 82.7677C524.782 87.2261 527.629 92.1782 527.462 99.9319C526.993 121.749 527.303 143.582 527.284 165.409C527.278 171.921 526.886 172.298 520.591 172.331C517.759 172.347 514.906 172.118 512.098 172.38C507.313 172.825 505.618 170.878 505.67 166.09C505.855 148.931 505.732 131.768 505.731 114.606C505.731 100.171 505.619 100.324 494.006 91.5737C467.139 71.3297 440.376 50.9461 413.614 30.5638C407.168 25.6544 407.232 25.5412 400.736 30.576C390.468 38.5332 380.216 46.5112 369.69 54.7184Z" fill="#2563EB"/>
<path d="M286.253 339.354C273.742 347.944 260.045 349.286 245.828 347.809C236.065 346.795 226.851 344.268 219.619 337.007C214.96 332.328 212.678 326.531 211.692 320.147C211.152 316.645 212.493 314.741 216.317 314.964C218.808 315.109 221.329 315.18 223.809 314.967C228.851 314.533 232.954 315.376 235.185 320.737C236.124 322.993 238.224 324.789 240.519 325.851C250.179 330.32 259.979 330.704 269.124 324.944C278.536 319.015 280.663 309.749 279.256 298.833C266.585 309.671 252.565 312.072 237.438 306.791C220.523 300.885 209.088 284.027 208.591 266.088C208.248 253.71 210.41 242.23 218.143 232.262C232.245 214.082 258.422 210.208 277.183 223.457C277.98 224.019 278.799 224.552 279.685 225.15C281.594 223.033 279.92 220.419 281.519 217.654C287.3 217.654 293.561 217.453 299.8 217.739C302.958 217.883 302.26 220.808 302.263 222.846C302.298 245.836 302.28 268.827 302.277 291.818C302.276 299.803 302.273 307.742 300.57 315.656C298.523 325.165 294.135 333.05 286.253 339.354ZM262.095 288.683C277.306 283.434 284.085 269.003 279.108 252.442C276.166 242.656 269.357 237.001 259.498 235.683C250.275 234.451 242.418 237.762 237.042 245.629C230.02 255.902 229.703 266.728 235.518 277.582C240.59 287.051 251.112 291.457 262.095 288.683Z" fill="#2563EB"/>
<path d="M82.6589 272.006C82.6591 266.546 82.6591 261.584 82.6591 256.879C80.1579 255.24 77.9448 256.032 75.8564 256.024C61.3645 255.965 46.8722 255.999 32.38 256C24.3468 256 24.3453 255.997 24.3428 263.77C24.3386 277.43 24.1874 291.092 24.4189 304.747C24.4939 309.17 23.0118 310.712 18.653 310.407C14.177 310.093 9.66039 310.235 5.16584 310.348C1.92368 310.43 0.62262 308.929 0.738312 305.823C0.806466 303.993 0.735123 302.159 0.735345 300.326C0.739648 263.846 0.742998 227.365 0.752351 190.884C0.754434 182.746 0.764581 182.744 9.11685 182.689C12.4483 182.666 15.7893 182.806 19.1089 182.599C22.9896 182.357 24.4199 183.925 24.3774 187.83C24.2308 201.321 24.4664 214.817 24.2584 228.306C24.1951 232.412 25.4337 233.81 29.6236 233.756C45.4459 233.554 61.2743 233.539 77.0961 233.764C81.5651 233.828 82.8047 232.261 82.7338 227.966C82.514 214.643 82.7904 201.313 82.5955 187.989C82.5347 183.839 83.9659 182.3 88.0707 182.575C91.8846 182.831 95.7393 182.791 99.5581 182.571C103.307 182.355 104.445 183.935 104.41 187.55C104.273 201.874 104.368 216.201 104.37 230.527C104.372 255.18 104.274 279.834 104.455 304.487C104.488 309.005 103.221 310.867 98.5443 310.413C94.9134 310.06 91.2124 310.172 87.5595 310.378C83.9057 310.584 82.5548 309.188 82.6101 305.486C82.7743 294.494 82.6626 283.498 82.6589 272.006Z" fill="#2563EB"/>
<path d="M797.52 297.471C789.128 306.912 778.961 311.837 766.661 312.321C754.648 312.793 744.185 308.934 735.464 300.678C734.89 301.386 734.547 301.614 734.511 301.882C733.377 310.344 733.382 310.386 724.902 310.34C712.858 310.275 714.706 311.337 714.686 300.373C714.619 262.735 714.657 225.096 714.66 187.458C714.661 180.693 714.671 180.691 721.606 180.668C724.271 180.659 726.935 180.658 729.6 180.663C736.292 180.676 736.321 180.678 736.336 187.152C736.363 198.477 736.35 209.802 736.354 221.127C736.354 222.929 736.354 224.731 736.354 226.279C737.758 227.122 738.383 226.352 738.937 225.845C762.289 204.504 799.469 218.087 806.721 248.954C810.756 266.126 809.249 282.702 797.52 297.471ZM781.863 248.725C770.896 232.198 749.399 231.587 739.849 247.768C733.638 258.291 733.512 269.403 739.459 280.078C748.401 296.128 771.616 296.475 781.196 280.793C787.418 270.61 787.248 260.014 781.863 248.725Z" fill="#2563EB"/>
<path d="M511.285 310.206C506.411 310.556 506.09 307.648 506.093 304.373C506.113 286.384 506.106 268.394 506.098 250.404C506.088 229.416 506.048 208.428 506.06 187.439C506.063 180.997 506.397 180.722 512.847 180.669C528.312 180.542 528.323 180.542 528.361 195.978C528.383 205.259 528.365 214.541 528.365 223.78C531.196 224.442 532.022 222.337 533.39 221.366C555.623 205.585 586.86 219.609 589.352 246.74C591.167 266.502 589.702 286.347 590.089 306.151C590.146 309.032 588.84 310.412 585.857 310.348C581.362 310.252 576.852 310.138 572.369 310.393C568.234 310.628 566.773 309.006 566.815 304.901C566.969 289.911 566.911 274.918 566.86 259.927C566.846 255.788 567.006 251.653 565.29 247.652C562.204 240.46 556.15 236.405 548.001 236.459C540.639 236.508 533.73 240.966 531.097 247.638C529.319 252.144 528.364 256.867 528.363 261.749C528.36 276.074 528.215 290.401 528.424 304.724C528.487 309.05 527.214 310.853 522.738 310.417C519.103 310.063 515.416 310.254 511.285 310.206Z" fill="#2563EB"/>
<path d="M340.378 308.916C307.926 294.627 303.144 246.79 330.452 224.497C350.54 208.098 392.739 212.309 399.453 250.464C400.272 255.116 400.078 259.729 400.4 264.357C400.714 268.879 399.081 270.5 394.412 270.438C377.099 270.206 359.78 270.327 342.463 270.358C340.501 270.362 338.468 269.971 336.609 270.909C335.334 278.307 343.176 289.072 349.421 291.745C357.281 295.108 366.959 293.561 372.672 286.868C375.653 283.374 378.76 282.285 383.018 282.549C386.158 282.744 389.332 282.368 392.492 282.289C397.196 282.171 398.314 283.603 396.52 288.002C391.436 300.466 382.168 308.259 369.127 311.231C359.53 313.417 349.964 312.84 340.378 308.916ZM361.825 253.216C366.83 252.441 372.015 254.363 376.965 252.594C375.987 242.276 367.256 234.455 357.027 234.383C346.928 234.312 337.857 242.4 336.669 252.855C344.753 253.429 352.81 253.995 361.825 253.216Z" fill="#2563EB"/>
<path d="M141.452 248.325C136.345 248.356 131.679 248.247 127.02 248.376C123.109 248.485 121.714 247.264 122.514 243.03C125.29 228.324 139.353 216.486 155.343 215.678C163.452 215.268 171.297 216.173 178.647 219.827C191.768 226.349 197.907 237.424 198.198 251.631C198.564 269.443 198.23 287.27 198.351 305.089C198.377 308.866 197.205 310.776 193.191 310.375C191.542 310.211 189.863 310.346 188.197 310.343C179.087 310.328 179.087 310.328 176.286 301.907C170.167 307.181 163.356 310.674 155.43 311.837C148.022 312.924 140.793 312.41 133.87 309.629C123.847 305.602 119.647 297.187 119.068 287.184C118.494 277.256 121.644 268.495 130.605 262.709C140.324 256.434 151.504 255.477 162.473 253.719C165.093 253.3 167.736 253.028 170.364 252.654C175.222 251.962 176.541 249.887 175.26 245.006C173.796 239.426 169.731 235.886 164.008 235.207C155.713 234.223 149.565 236.84 146.35 242.676C145.185 244.79 144.838 247.577 141.452 248.325ZM142.82 288.332C144.14 291.46 146.585 293.38 149.7 294.42C163.633 299.073 179.308 285.423 176.703 271.01C176.3 268.784 175.326 268.251 173.274 268.838C167.491 270.492 161.465 270.481 155.558 271.29C146.073 272.589 141.589 278.053 142.82 288.332Z" fill="#2563EB"/>
<path d="M671.153 301.216C664.583 306.137 658.058 310.647 649.556 311.872C629.5 314.764 607.222 303.94 607.613 277.716C607.881 259.728 607.756 241.733 607.583 223.743C607.541 219.423 608.533 217.155 613.387 217.565C617.184 217.885 621.066 217.851 624.854 217.451C628.926 217.021 630.169 218.617 630.137 222.475C630.007 238.633 630.122 254.793 630.002 270.951C629.937 279.75 632.19 287.323 640.959 291.011C656.74 297.646 671.981 287.811 671.764 272.067C671.542 255.911 671.868 239.748 671.668 223.592C671.613 219.092 672.875 217.175 677.608 217.568C681.742 217.91 685.937 217.709 690.093 217.504C693.01 217.359 694.37 218.239 694.363 221.383C694.294 249.702 694.293 278.022 694.341 306.342C694.346 309.401 693.017 310.454 690.105 310.366C685.944 310.24 681.758 310.087 677.617 310.401C672.983 310.752 671.107 308.931 671.613 304.37C671.721 303.401 671.446 302.389 671.153 301.216Z" fill="#2563EB"/>
<path d="M411.595 287.016C411.592 265.219 411.68 243.917 411.511 222.618C411.477 218.439 412.725 216.86 416.947 217.495C419.052 217.812 421.269 217.526 423.422 217.347C431.719 216.658 431.717 216.633 432.609 224.377C433.52 225.008 434.184 224.388 434.766 223.852C443.801 215.535 454.657 214.485 466.07 216.265C483.374 218.964 492.485 232.041 493.155 248.505C493.927 267.461 493.269 286.473 493.38 305.459C493.402 309.134 492.07 310.575 488.404 310.387C484.417 310.184 480.397 310.128 476.418 310.396C472.109 310.686 470.544 309.12 470.599 304.7C470.801 288.713 470.657 272.722 470.691 256.733C470.7 252.119 469.5 247.79 467.229 243.895C463.346 237.233 455.725 234.757 447.062 236.948C439.808 238.783 434.471 245.364 434.368 253.474C434.155 270.127 434.245 286.783 434.213 303.438C434.2 310.306 434.203 310.319 427.232 310.338C423.734 310.348 420.225 310.117 416.742 310.332C412.734 310.581 411.458 308.749 411.559 305C411.716 299.175 411.598 293.342 411.595 287.016Z" fill="#2563EB"/>
<path d="M404.334 117.825C404.216 125.393 403.36 126.247 396.2 126.286C391.381 126.311 386.561 126.356 381.744 126.276C376.484 126.188 374.797 124.564 374.724 119.46C374.641 113.645 374.726 107.828 374.708 102.013C374.695 97.6979 376.733 95.601 381.124 95.6732C386.773 95.7661 392.425 95.7719 398.073 95.6871C402.372 95.6226 404.561 97.2926 404.371 101.897C404.16 107.039 404.329 112.197 404.334 117.825Z" fill="#2563EB"/>
<path d="M411.605 97.8711C413.145 95.8953 414.937 95.7029 416.811 95.7059C422.627 95.715 428.442 95.7162 434.258 95.7103C438.224 95.7062 440.492 97.2373 440.37 101.641C440.2 107.784 440.246 113.937 440.352 120.083C440.426 124.313 438.301 126.205 434.303 126.244C428.489 126.301 422.672 126.302 416.857 126.231C413.743 126.193 410.912 125.029 410.872 121.571C410.782 113.8 409.918 105.994 411.605 97.8711Z" fill="#2563EB"/>
<path d="M411.981 134.944C420.469 132.669 428.75 133.866 436.978 133.934C439.516 133.955 440.311 136.312 440.312 138.702C440.313 145.176 440.316 151.649 440.335 158.123C440.345 161.585 438.69 163.36 435.183 163.359C428.709 163.359 422.236 163.367 415.762 163.391C413.311 163.4 411.051 162.353 411 159.964C410.823 151.737 409.602 143.453 411.981 134.944Z" fill="#2563EB"/>
<path d="M374.759 158.605C374.725 152.166 374.808 146.191 374.683 140.22C374.588 135.711 376.269 133.433 381.116 133.626C387.081 133.864 393.062 133.771 399.034 133.664C402.86 133.595 404.422 135.314 404.352 139.082C404.235 145.385 404.284 151.692 404.336 157.997C404.368 161.769 402.516 163.43 398.832 163.4C392.694 163.35 386.554 163.323 380.415 163.378C377.344 163.405 375.271 162.329 374.759 158.605Z" fill="#2563EB"/>
</svg>
